<mxfile host="app.diagrams.net" modified="2024-05-28T03:58:54.992Z" agent="Mozilla/5.0 (Windows NT 10.0; Win64; x64) AppleWebKit/537.36 (KHTML, like Gecko) Chrome/125.0.0.0 Safari/537.36" etag="KCeBfv0gOVGHGbcdcYe-" version="24.4.6" type="device">
  <diagram name="Page-1" id="unWZImjaugJgxlwsBdk8">
    <mxGraphModel dx="1235" dy="727" grid="1" gridSize="10" guides="1" tooltips="1" connect="1" arrows="1" fold="1" page="1" pageScale="1" pageWidth="850" pageHeight="1100" math="0" shadow="0">
      <root>
        <mxCell id="0" />
        <mxCell id="1" parent="0" />
        <mxCell id="s_rb05EIpAknz0jELPy6-2" value="&lt;h1 style=&quot;margin-top: 0px;&quot;&gt;&lt;span style=&quot;background-color: initial;&quot;&gt;Representing Systems&lt;/span&gt;&lt;/h1&gt;&lt;h1 style=&quot;margin-top: 0px;&quot;&gt;&lt;span style=&quot;background-color: initial; font-size: 12px; font-weight: normal;&quot;&gt;Systems analysts - role is to understand how an organisation&#39;s processes work. To help them map out an entire system, they use two diagrams&lt;/span&gt;&lt;br&gt;&lt;/h1&gt;&lt;div&gt;&lt;span style=&quot;background-color: initial; font-size: 12px; font-weight: normal;&quot;&gt;- Context&lt;/span&gt;&lt;/div&gt;&lt;div&gt;- Data Flow&lt;/div&gt;&lt;div&gt;&lt;br&gt;&lt;/div&gt;&lt;div&gt;Seqta Example&lt;/div&gt;&lt;div&gt;&lt;span style=&quot;background-color: initial; font-size: 12px; font-weight: normal;&quot;&gt;&lt;br&gt;&lt;/span&gt;&lt;/div&gt;" style="text;html=1;whiteSpace=wrap;overflow=hidden;rounded=0;" parent="1" vertex="1">
          <mxGeometry width="430" height="190" as="geometry" />
        </mxCell>
        <mxCell id="s_rb05EIpAknz0jELPy6-61" value="" style="endArrow=classic;html=1;rounded=0;entryX=1;entryY=0.25;entryDx=0;entryDy=0;exitX=0.066;exitY=0.381;exitDx=0;exitDy=0;exitPerimeter=0;" parent="1" source="s_rb05EIpAknz0jELPy6-67" target="s_rb05EIpAknz0jELPy6-70" edge="1">
          <mxGeometry width="50" height="50" relative="1" as="geometry">
            <mxPoint x="120" y="330" as="sourcePoint" />
            <mxPoint x="170" y="280" as="targetPoint" />
          </mxGeometry>
        </mxCell>
        <mxCell id="s_rb05EIpAknz0jELPy6-62" style="edgeStyle=orthogonalEdgeStyle;rounded=0;orthogonalLoop=1;jettySize=auto;html=1;entryX=0;entryY=0.5;entryDx=0;entryDy=0;" parent="1" edge="1">
          <mxGeometry relative="1" as="geometry">
            <mxPoint x="305" y="361" as="sourcePoint" />
            <mxPoint x="230" y="361" as="targetPoint" />
          </mxGeometry>
        </mxCell>
        <mxCell id="s_rb05EIpAknz0jELPy6-63" value="&lt;span style=&quot;color: rgb(0, 0, 0); font-family: Helvetica; font-size: 5px; font-style: normal; font-variant-ligatures: normal; font-variant-caps: normal; font-weight: 400; letter-spacing: normal; orphans: 2; text-align: center; text-indent: 0px; text-transform: none; widows: 2; word-spacing: 0px; -webkit-text-stroke-width: 0px; white-space: nowrap; background-color: rgb(251, 251, 251); text-decoration-thickness: initial; text-decoration-style: initial; text-decoration-color: initial; display: inline !important; float: none;&quot;&gt;Requests for timetable&lt;/span&gt;" style="text;whiteSpace=wrap;html=1;" parent="1" vertex="1">
          <mxGeometry x="238" y="338" width="90" height="40" as="geometry" />
        </mxCell>
        <mxCell id="s_rb05EIpAknz0jELPy6-64" style="edgeStyle=orthogonalEdgeStyle;rounded=0;orthogonalLoop=1;jettySize=auto;html=1;" parent="1" edge="1">
          <mxGeometry relative="1" as="geometry">
            <mxPoint x="176" y="400" as="sourcePoint" />
            <mxPoint x="176" y="490" as="targetPoint" />
            <Array as="points">
              <mxPoint x="176" y="470" />
            </Array>
          </mxGeometry>
        </mxCell>
        <mxCell id="s_rb05EIpAknz0jELPy6-65" style="edgeStyle=orthogonalEdgeStyle;rounded=0;orthogonalLoop=1;jettySize=auto;html=1;endSize=6;entryX=0.75;entryY=1;entryDx=0;entryDy=0;" parent="1" edge="1">
          <mxGeometry relative="1" as="geometry">
            <mxPoint x="198" y="335" as="sourcePoint" />
            <mxPoint x="200" y="249.99999999999994" as="targetPoint" />
            <Array as="points">
              <mxPoint x="200" y="335" />
            </Array>
          </mxGeometry>
        </mxCell>
        <mxCell id="s_rb05EIpAknz0jELPy6-66" style="edgeStyle=orthogonalEdgeStyle;rounded=0;orthogonalLoop=1;jettySize=auto;html=1;entryX=0;entryY=0.5;entryDx=0;entryDy=0;" parent="1" edge="1">
          <mxGeometry relative="1" as="geometry">
            <mxPoint x="230" y="380" as="sourcePoint" />
            <mxPoint x="300" y="380" as="targetPoint" />
          </mxGeometry>
        </mxCell>
        <mxCell id="s_rb05EIpAknz0jELPy6-67" value="SEQTA" style="ellipse;whiteSpace=wrap;html=1;aspect=fixed;" parent="1" vertex="1">
          <mxGeometry x="150" y="330" width="80" height="80" as="geometry" />
        </mxCell>
        <mxCell id="s_rb05EIpAknz0jELPy6-68" value="&lt;font style=&quot;font-size: 10px;&quot;&gt;System&lt;/font&gt;" style="text;html=1;align=center;verticalAlign=middle;whiteSpace=wrap;rounded=0;" parent="1" vertex="1">
          <mxGeometry x="208" y="320" width="60" height="30" as="geometry" />
        </mxCell>
        <mxCell id="s_rb05EIpAknz0jELPy6-69" style="edgeStyle=orthogonalEdgeStyle;rounded=0;orthogonalLoop=1;jettySize=auto;html=1;entryX=0;entryY=0.5;entryDx=0;entryDy=0;" parent="1" source="s_rb05EIpAknz0jELPy6-70" target="s_rb05EIpAknz0jELPy6-67" edge="1">
          <mxGeometry relative="1" as="geometry" />
        </mxCell>
        <mxCell id="s_rb05EIpAknz0jELPy6-70" value="Students" style="rounded=0;whiteSpace=wrap;html=1;" parent="1" vertex="1">
          <mxGeometry y="350" width="80" height="40" as="geometry" />
        </mxCell>
        <mxCell id="s_rb05EIpAknz0jELPy6-71" style="edgeStyle=orthogonalEdgeStyle;rounded=0;orthogonalLoop=1;jettySize=auto;html=1;" parent="1" source="s_rb05EIpAknz0jELPy6-72" target="s_rb05EIpAknz0jELPy6-67" edge="1">
          <mxGeometry relative="1" as="geometry" />
        </mxCell>
        <mxCell id="s_rb05EIpAknz0jELPy6-72" value="Teachers" style="rounded=0;whiteSpace=wrap;html=1;" parent="1" vertex="1">
          <mxGeometry x="150" y="490" width="80" height="40" as="geometry" />
        </mxCell>
        <mxCell id="s_rb05EIpAknz0jELPy6-73" value="Parents" style="rounded=0;whiteSpace=wrap;html=1;" parent="1" vertex="1">
          <mxGeometry x="300" y="350" width="80" height="40" as="geometry" />
        </mxCell>
        <mxCell id="s_rb05EIpAknz0jELPy6-74" value="&lt;font style=&quot;font-size: 8px;&quot;&gt;External Entity&lt;/font&gt;" style="text;html=1;align=center;verticalAlign=middle;whiteSpace=wrap;rounded=0;" parent="1" vertex="1">
          <mxGeometry x="342" y="320" width="60" height="30" as="geometry" />
        </mxCell>
        <mxCell id="s_rb05EIpAknz0jELPy6-75" value="&lt;font style=&quot;font-size: 7px;&quot;&gt;Request for timetable&lt;/font&gt;&lt;div style=&quot;font-size: 7px;&quot;&gt;&lt;span style=&quot;background-color: initial;&quot;&gt;&lt;font style=&quot;font-size: 7px;&quot;&gt;DM&#39;s (Direct Messages)&lt;/font&gt;&lt;/span&gt;&lt;/div&gt;" style="text;html=1;align=center;verticalAlign=middle;resizable=0;points=[];autosize=1;strokeColor=none;fillColor=none;" parent="1" vertex="1">
          <mxGeometry x="66" y="317" width="100" height="40" as="geometry" />
        </mxCell>
        <mxCell id="s_rb05EIpAknz0jELPy6-76" value="&lt;span style=&quot;font-size: 7px;&quot;&gt;Classes/Timetable&lt;/span&gt;&lt;div&gt;&lt;span style=&quot;font-size: 7px;&quot;&gt;Direct Messages&lt;/span&gt;&lt;/div&gt;&lt;div&gt;&lt;span style=&quot;font-size: 7px;&quot;&gt;Assessment Notifications&lt;/span&gt;&lt;/div&gt;" style="text;html=1;align=center;verticalAlign=middle;resizable=0;points=[];autosize=1;strokeColor=none;fillColor=none;" parent="1" vertex="1">
          <mxGeometry x="65" y="361" width="100" height="60" as="geometry" />
        </mxCell>
        <mxCell id="s_rb05EIpAknz0jELPy6-77" value="&lt;div&gt;&lt;span style=&quot;font-size: 7px;&quot;&gt;Assessment Notifications&lt;/span&gt;&lt;/div&gt;&lt;div&gt;&lt;span style=&quot;font-size: 7px;&quot;&gt;Dates&lt;/span&gt;&lt;/div&gt;&lt;div&gt;&lt;span style=&quot;font-size: 7px;&quot;&gt;Report data&lt;/span&gt;&lt;/div&gt;" style="text;html=1;align=center;verticalAlign=middle;resizable=0;points=[];autosize=1;strokeColor=none;fillColor=none;" parent="1" vertex="1">
          <mxGeometry x="180" y="421" width="100" height="60" as="geometry" />
        </mxCell>
        <mxCell id="s_rb05EIpAknz0jELPy6-78" value="Academic Office" style="rounded=0;whiteSpace=wrap;html=1;" parent="1" vertex="1">
          <mxGeometry x="150" y="210" width="80" height="40" as="geometry" />
        </mxCell>
        <mxCell id="s_rb05EIpAknz0jELPy6-79" value="&lt;div style=&quot;font-size: 7px;&quot;&gt;&lt;span style=&quot;background-color: initial;&quot;&gt;&lt;font style=&quot;font-size: 7px;&quot;&gt;Verified Reports&lt;/font&gt;&lt;/span&gt;&lt;/div&gt;" style="text;html=1;align=center;verticalAlign=middle;resizable=0;points=[];autosize=1;strokeColor=none;fillColor=none;" parent="1" vertex="1">
          <mxGeometry x="118" y="270" width="70" height="20" as="geometry" />
        </mxCell>
        <mxCell id="s_rb05EIpAknz0jELPy6-80" style="edgeStyle=orthogonalEdgeStyle;rounded=0;orthogonalLoop=1;jettySize=auto;html=1;endSize=6;" parent="1" edge="1">
          <mxGeometry relative="1" as="geometry">
            <mxPoint x="180" y="250" as="sourcePoint" />
            <mxPoint x="180" y="330" as="targetPoint" />
            <Array as="points">
              <mxPoint x="180" y="250" />
            </Array>
          </mxGeometry>
        </mxCell>
        <mxCell id="s_rb05EIpAknz0jELPy6-81" value="&lt;span style=&quot;font-size: 5px;&quot;&gt;Notifications re: students&lt;/span&gt;" style="text;html=1;align=center;verticalAlign=middle;resizable=0;points=[];autosize=1;strokeColor=none;fillColor=none;" parent="1" vertex="1">
          <mxGeometry x="220" y="374" width="80" height="30" as="geometry" />
        </mxCell>
        <mxCell id="s_rb05EIpAknz0jELPy6-82" value="&lt;div style=&quot;font-size: 7px;&quot;&gt;&lt;span style=&quot;background-color: initial;&quot;&gt;&lt;font style=&quot;font-size: 7px;&quot;&gt;Student grades&lt;/font&gt;&lt;/span&gt;&lt;/div&gt;&lt;div style=&quot;font-size: 7px;&quot;&gt;&lt;span style=&quot;background-color: initial;&quot;&gt;&lt;font style=&quot;font-size: 7px;&quot;&gt;&lt;br&gt;&lt;/font&gt;&lt;/span&gt;&lt;/div&gt;&lt;div style=&quot;font-size: 7px;&quot;&gt;&lt;span style=&quot;background-color: initial;&quot;&gt;&lt;font style=&quot;font-size: 7px;&quot;&gt;Reports&lt;/font&gt;&lt;/span&gt;&lt;/div&gt;" style="text;html=1;align=center;verticalAlign=middle;resizable=0;points=[];autosize=1;strokeColor=none;fillColor=none;" parent="1" vertex="1">
          <mxGeometry x="191" y="260" width="70" height="40" as="geometry" />
        </mxCell>
        <mxCell id="s_rb05EIpAknz0jELPy6-83" value="&lt;div&gt;&lt;span style=&quot;font-size: 7px; background-color: initial;&quot;&gt;Timetables&lt;/span&gt;&lt;/div&gt;&lt;div&gt;&lt;span style=&quot;font-size: 7px; background-color: initial;&quot;&gt;DM&#39;s&lt;/span&gt;&lt;/div&gt;&lt;div&gt;&lt;span style=&quot;font-size: 7px; background-color: initial;&quot;&gt;Report&amp;nbsp;&lt;/span&gt;&lt;br&gt;&lt;/div&gt;" style="text;html=1;align=center;verticalAlign=middle;resizable=0;points=[];autosize=1;strokeColor=none;fillColor=none;" parent="1" vertex="1">
          <mxGeometry x="128" y="420" width="60" height="60" as="geometry" />
        </mxCell>
        <mxCell id="s_rb05EIpAknz0jELPy6-84" value="Password Checker" style="ellipse;whiteSpace=wrap;html=1;aspect=fixed;" parent="1" vertex="1">
          <mxGeometry x="440" y="160" width="80" height="80" as="geometry" />
        </mxCell>
        <mxCell id="s_rb05EIpAknz0jELPy6-85" value="User" style="rounded=0;whiteSpace=wrap;html=1;" parent="1" vertex="1">
          <mxGeometry x="329" y="180" width="70" height="40" as="geometry" />
        </mxCell>
        <mxCell id="s_rb05EIpAknz0jELPy6-87" style="edgeStyle=orthogonalEdgeStyle;rounded=0;orthogonalLoop=1;jettySize=auto;html=1;exitX=1;exitY=0.25;exitDx=0;exitDy=0;entryX=0.029;entryY=0.371;entryDx=0;entryDy=0;entryPerimeter=0;" parent="1" source="s_rb05EIpAknz0jELPy6-85" target="s_rb05EIpAknz0jELPy6-84" edge="1">
          <mxGeometry relative="1" as="geometry" />
        </mxCell>
        <mxCell id="s_rb05EIpAknz0jELPy6-89" value="&lt;h1 style=&quot;margin-top: 0px;&quot;&gt;Data flow diagram (Level 1)&lt;/h1&gt;&lt;div&gt;Breaks down a system into its core processes.&lt;/div&gt;&lt;div&gt;&lt;br&gt;&lt;/div&gt;&lt;div&gt;Also includes &lt;b&gt;data stores&lt;/b&gt;&lt;/div&gt;" style="text;html=1;whiteSpace=wrap;overflow=hidden;rounded=0;" parent="1" vertex="1">
          <mxGeometry y="560" width="200" height="150" as="geometry" />
        </mxCell>
        <mxCell id="s_rb05EIpAknz0jELPy6-96" value="Courses&lt;span style=&quot;color: rgba(0, 0, 0, 0); font-family: monospace; font-size: 0px; text-align: start; text-wrap: nowrap;&quot;&gt;%3CmxGraphModel%3E%3Croot%3E%3CmxCell%20id%3D%220%22%2F%3E%3CmxCell%20id%3D%221%22%20parent%3D%220%22%2F%3E%3CmxCell%20id%3D%222%22%20value%3D%22Teachers%22%20style%3D%22rounded%3D0%3BwhiteSpace%3Dwrap%3Bhtml%3D1%3B%22%20vertex%3D%221%22%20parent%3D%221%22%3E%3CmxGeometry%20x%3D%22350%22%20y%3D%22750%22%20width%3D%2280%22%20height%3D%2240%22%20as%3D%22geometry%22%2F%3E%3C%2FmxCell%3E%3C%2Froot%3E%3C%2FmxGraphModel%3E&lt;/span&gt;" style="ellipse;whiteSpace=wrap;html=1;aspect=fixed;" parent="1" vertex="1">
          <mxGeometry x="240" y="720" width="80" height="80" as="geometry" />
        </mxCell>
        <mxCell id="s_rb05EIpAknz0jELPy6-97" value="Teachers" style="rounded=0;whiteSpace=wrap;html=1;" parent="1" vertex="1">
          <mxGeometry x="350" y="720" width="80" height="40" as="geometry" />
        </mxCell>
        <mxCell id="s_rb05EIpAknz0jELPy6-98" value="Students" style="rounded=0;whiteSpace=wrap;html=1;" parent="1" vertex="1">
          <mxGeometry x="350" y="800" width="80" height="40" as="geometry" />
        </mxCell>
        <mxCell id="s_rb05EIpAknz0jELPy6-99" value="DM&#39;s" style="ellipse;whiteSpace=wrap;html=1;aspect=fixed;" parent="1" vertex="1">
          <mxGeometry x="240" y="810" width="80" height="80" as="geometry" />
        </mxCell>
        <mxCell id="s_rb05EIpAknz0jELPy6-100" value="Assessments" style="ellipse;whiteSpace=wrap;html=1;aspect=fixed;" parent="1" vertex="1">
          <mxGeometry x="459" y="720" width="80" height="80" as="geometry" />
        </mxCell>
        <mxCell id="s_rb05EIpAknz0jELPy6-101" value="Timetables" style="ellipse;whiteSpace=wrap;html=1;aspect=fixed;" parent="1" vertex="1">
          <mxGeometry x="459" y="810" width="80" height="80" as="geometry" />
        </mxCell>
        <mxCell id="s_rb05EIpAknz0jELPy6-102" value="Data Store" style="strokeWidth=1;html=1;shape=mxgraph.flowchart.annotation_1;align=center;pointerEvents=1;" parent="1" vertex="1">
          <mxGeometry x="341" y="932" width="100" height="50" as="geometry" />
        </mxCell>
        <mxCell id="s_rb05EIpAknz0jELPy6-103" value="" style="curved=1;endArrow=classic;html=1;rounded=0;exitX=0;exitY=0.5;exitDx=0;exitDy=0;" parent="1" source="s_rb05EIpAknz0jELPy6-101" edge="1">
          <mxGeometry width="50" height="50" relative="1" as="geometry">
            <mxPoint x="482" y="910" as="sourcePoint" />
            <mxPoint x="402" y="840" as="targetPoint" />
            <Array as="points">
              <mxPoint x="402" y="860" />
            </Array>
          </mxGeometry>
        </mxCell>
        <mxCell id="s_rb05EIpAknz0jELPy6-105" value="&lt;font style=&quot;font-size: 7px;&quot;&gt;Weekly&lt;/font&gt;&lt;div&gt;&lt;font style=&quot;font-size: 7px;&quot;&gt;timetable&lt;/font&gt;&lt;/div&gt;" style="text;html=1;align=center;verticalAlign=middle;whiteSpace=wrap;rounded=0;" parent="1" vertex="1">
          <mxGeometry x="402" y="835" width="60" height="30" as="geometry" />
        </mxCell>
        <mxCell id="s_rb05EIpAknz0jELPy6-107" value="" style="curved=1;endArrow=classic;html=1;rounded=0;exitX=0.25;exitY=1;exitDx=0;exitDy=0;entryX=0;entryY=1;entryDx=0;entryDy=0;" parent="1" source="s_rb05EIpAknz0jELPy6-98" target="s_rb05EIpAknz0jELPy6-101" edge="1">
          <mxGeometry width="50" height="50" relative="1" as="geometry">
            <mxPoint x="402" y="915" as="sourcePoint" />
            <mxPoint x="452" y="865" as="targetPoint" />
            <Array as="points">
              <mxPoint x="410" y="900" />
            </Array>
          </mxGeometry>
        </mxCell>
        <mxCell id="s_rb05EIpAknz0jELPy6-108" value="&lt;font style=&quot;font-size: 7px;&quot;&gt;Student&lt;/font&gt;&lt;div&gt;&lt;font style=&quot;font-size: 7px;&quot;&gt;ID&lt;/font&gt;&lt;/div&gt;" style="text;html=1;align=center;verticalAlign=middle;whiteSpace=wrap;rounded=0;" parent="1" vertex="1">
          <mxGeometry x="404" y="868" width="60" height="30" as="geometry" />
        </mxCell>
        <mxCell id="s_rb05EIpAknz0jELPy6-110" value="" style="curved=1;endArrow=classic;html=1;rounded=0;exitX=0.5;exitY=1;exitDx=0;exitDy=0;entryX=0.594;entryY=-0.052;entryDx=0;entryDy=0;entryPerimeter=0;" parent="1" source="s_rb05EIpAknz0jELPy6-101" target="s_rb05EIpAknz0jELPy6-102" edge="1">
          <mxGeometry width="50" height="50" relative="1" as="geometry">
            <mxPoint x="489" y="948" as="sourcePoint" />
            <mxPoint x="410" y="920" as="targetPoint" />
            <Array as="points">
              <mxPoint x="510" y="930" />
              <mxPoint x="440" y="910" />
            </Array>
          </mxGeometry>
        </mxCell>
        <mxCell id="s_rb05EIpAknz0jELPy6-111" value="&lt;font style=&quot;font-size: 7px;&quot;&gt;Student&lt;/font&gt;&lt;div&gt;&lt;font style=&quot;font-size: 7px;&quot;&gt;ID&lt;/font&gt;&lt;/div&gt;" style="text;html=1;align=center;verticalAlign=middle;whiteSpace=wrap;rounded=0;" parent="1" vertex="1">
          <mxGeometry x="455" y="903" width="60" height="30" as="geometry" />
        </mxCell>
        <mxCell id="s_rb05EIpAknz0jELPy6-115" value="" style="curved=1;endArrow=classic;html=1;rounded=0;exitX=1;exitY=1;exitDx=0;exitDy=0;exitPerimeter=0;entryX=1;entryY=1;entryDx=0;entryDy=0;" parent="1" source="s_rb05EIpAknz0jELPy6-102" target="s_rb05EIpAknz0jELPy6-101" edge="1">
          <mxGeometry width="50" height="50" relative="1" as="geometry">
            <mxPoint x="465" y="1010" as="sourcePoint" />
            <mxPoint x="550" y="920" as="targetPoint" />
            <Array as="points">
              <mxPoint x="510" y="982" />
            </Array>
          </mxGeometry>
        </mxCell>
        <mxCell id="s_rb05EIpAknz0jELPy6-118" value="&lt;font style=&quot;font-size: 8px;&quot;&gt;Timetable&lt;/font&gt;" style="edgeLabel;html=1;align=center;verticalAlign=middle;resizable=0;points=[];" parent="s_rb05EIpAknz0jELPy6-115" vertex="1" connectable="0">
          <mxGeometry x="0.2197" y="9" relative="1" as="geometry">
            <mxPoint as="offset" />
          </mxGeometry>
        </mxCell>
      </root>
    </mxGraphModel>
  </diagram>
</mxfile>
